<svg fill-rule="evenodd" height="264.2331" preserveAspectRatio="xMidYMid" stroke-linejoin="round" stroke-width="28.222" viewBox="7235 9294 7428.3704 6214.3704" width="315.852" xmlns="http://www.w3.org/2000/svg"><path d="m10090.1852 12279.1852h357v396h-357z" fill="none"/><path d="m10140.9738 12480.7012q0 55.988 18.7207 81.123 18.7207 25.134 58.5888 25.134 39.6949 0 58.5889-25.134 18.894-25.135 18.894-81.123 0-55.642-18.894-80.083-18.721-24.615-58.5889-24.615-40.0415 0-58.7622 24.615-18.5473 24.441-18.5473 80.083zm-36.2281 0q0-118.565 113.5376-118.565 56.1619 0 84.9369 30.161 28.774 29.988 28.774 88.404 0 59.282-29.121 89.616-29.121 30.335-84.5899 30.335-55.2954 0-84.4165-30.161-29.1211-30.335-29.1211-89.79z"/><path d="m10602.1852 13856.1852h357v396h-357z" fill="none"/><path d="m10612.4122 14174.1852v-9.187l29.815-4.68v-204.888l-29.815-4.507v-9.187h93.084v9.187l-29.815 4.507v91.35h109.378v-91.35l-29.815-4.507v-9.187h92.91v9.187l-29.814 4.507v204.888l29.814 4.68v9.187h-92.91v-9.187l29.815-4.68v-97.937h-109.378v97.937l29.815 4.68v9.187z"/><path d="m9510.1852 13341.1852h357v396h-357z" fill="none"/><path d="m9520.4123 13659.1852v-9.187l29.8144-4.68v-204.888l-29.8144-4.507v-9.187h93.0834v9.187l-29.8144 4.507v91.35h109.3774v-91.35l-29.8144-4.507v-9.187h92.9101v9.187l-29.8144 4.507v204.888l29.8144 4.68v9.187h-92.9101v-9.187l29.8144-4.68v-97.937h-109.3774v97.937l29.8144 4.68v9.187z"/><path d="m8579.1852 12943.1852h357v396h-357z" fill="none"/><path d="m8589.4123 13261.1852v-9.187l29.8144-4.68v-204.888l-29.8144-4.507v-9.187h93.0834v9.187l-29.8144 4.507v91.35h109.3774v-91.35l-29.8144-4.507v-9.187h92.9101v9.187l-29.8144 4.507v204.888l29.8144 4.68v9.187h-92.9101v-9.187l29.8144-4.68v-97.937h-109.3774v97.937l29.8144 4.68v9.187z"/><path d="m7470.1852 12370.1852h357v396h-357z" fill="none"/><path d="m7480.4123 12688.1852v-9.187l29.8144-4.68v-204.888l-29.8144-4.507v-9.187h93.0834v9.187l-29.8144 4.507v91.35h109.3774v-91.35l-29.8144-4.507v-9.187h92.9101v9.187l-29.8144 4.507v204.888l29.8144 4.68v9.187h-92.9101v-9.187l29.8144-4.68v-97.937h-109.3774v97.937l29.8144 4.68v9.187z"/><path d="m7987.1852 13341.1852h541v396h-541z" fill="none"/><path d="m8049.9738 13542.7012q0 55.988 18.7207 81.123 18.7207 25.134 58.5888 25.134 39.6949 0 58.5889-25.134 18.8941-25.135 18.8941-81.123 0-55.642-18.8941-80.083-18.7207-24.615-58.5889-24.615-40.0415 0-58.7622 24.615-18.5473 24.441-18.5473 80.083zm-36.2281 0q0-118.565 113.5376-118.565 56.1622 0 84.9366 30.161 28.7744 29.988 28.7744 88.404 0 59.282-29.1211 89.616-29.1211 30.335-84.5899 30.335-55.2954 0-84.4165-30.161-29.1211-30.335-29.1211-89.79z"/><path d="m8265.7819 13659.1852v-9.187l29.8144-4.68v-204.888l-29.8144-4.507v-9.187h93.0835v9.187l-29.8145 4.507v91.35h109.3775v-91.35l-29.8145-4.507v-9.187h92.9102v9.187l-29.8145 4.507v204.888l29.8145 4.68v9.187h-92.9102v-9.187l29.8145-4.68v-97.937h-109.3775v97.937l29.8145 4.68v9.187z"/><path d="m8007.1852 14766.1852h357v396h-357z" fill="none"/><path d="m8017.4123 15084.1852v-9.187l29.8144-4.68v-204.888l-29.8144-4.507v-9.187h93.0834v9.187l-29.8144 4.507v91.35h109.3774v-91.35l-29.8144-4.507v-9.187h92.9101v9.187l-29.8144 4.507v204.888l29.8144 4.68v9.187h-92.9101v-9.187l29.8144-4.68v-97.937h-109.3774v97.937l29.8144 4.68v9.187z"/><path d="m9490.1852 14766.1852h541v396h-541z" fill="none"/><path d="m9552.9738 14967.7012q0 55.988 18.7207 81.123 18.7207 25.134 58.5888 25.134 39.6949 0 58.5889-25.134 18.8941-25.135 18.8941-81.123 0-55.642-18.8941-80.083-18.7207-24.615-58.5889-24.615-40.0415 0-58.7622 24.615-18.5473 24.441-18.5473 80.083zm-36.2281 0q0-118.565 113.5376-118.565 56.1622 0 84.9366 30.161 28.7744 29.988 28.7744 88.404 0 59.282-29.1211 89.616-29.1211 30.335-84.5899 30.335-55.2954 0-84.4165-30.161-29.1211-30.335-29.1211-89.79z"/><path d="m9768.7819 15084.1852v-9.187l29.8144-4.68v-204.888l-29.8144-4.507v-9.187h93.0835v9.187l-29.8145 4.507v91.35h109.3775v-91.35l-29.8145-4.507v-9.187h92.9102v9.187l-29.8145 4.507v204.888l29.8145 4.68v9.187h-92.9102v-9.187l29.8145-4.68v-97.937h-109.3775v97.937l29.8145 4.68v9.187z"/><path d="m10611.1852 12016.1852h357v396h-357z" fill="none"/><path d="m10661.9742 12217.7012q0 55.988 18.72 81.123 18.721 25.134 58.589 25.134 39.695 0 58.589-25.134 18.894-25.135 18.894-81.123 0-55.642-18.894-80.083-18.721-24.615-58.589-24.615-40.041 0-58.762 24.615-18.547 24.441-18.547 80.083zm-36.228 0q0-118.565 113.537-118.565 56.162 0 84.937 30.161 28.774 29.988 28.774 88.404 0 59.282-29.121 89.616-29.121 30.335-84.59 30.335-55.295 0-84.416-30.161-29.121-30.335-29.121-89.79z"/><path d="m8579.1852 11578.1852h498v396h-498z" fill="none"/><path d="m8713.3502 11899.6522q-56.5087 0-88.0566-30.681-31.5479-30.855-31.5479-86.324 0-59.975 30.3345-90.656 30.3345-30.855 89.9634-30.855 36.228 0 77.8296 8.841l1.04 50.788h-11.4404l-5.2002-30.161q-12.1338-7.454-28.2544-11.44-15.9473-4.161-32.5879-4.161-44.5483 0-65.0024 26.175-20.4541 26.174-20.4541 81.123 0 50.615 21.3208 77.309 21.4941 26.695 62.4023 26.695 19.7608 0 37.2681-4.681 17.5073-4.853 27.7344-12.827l6.4135-34.668h11.2671l-1.04 54.602q-38.1348 10.921-81.9898 10.921z"/><path d="m8826.1945 11896.1852v-9.187l29.8144-4.68v-204.888l-29.8144-4.507v-9.187h93.0835v9.187l-29.8145 4.507v91.35h109.3775v-91.35l-29.8145-4.507v-9.187h92.9102v9.187l-29.8145 4.507v204.888l29.8145 4.68v9.187h-92.9102v-9.187l29.8145-4.68v-97.937h-109.3775v97.937l29.8145 4.68v9.187z"/><path d="m9074.1852 11754.1852h280v311h-280z" fill="none"/><path d="m9198.2912 12004.1852h-111.8453v-20.026l25.3389-23.023q24.3853-21.388 35.8286-34.602 11.4434-13.215 16.3477-27.246 5.0405-14.032 5.0405-32.151 0-17.71-8.0376-26.973-8.0376-9.264-26.2925-9.264-7.2202 0-14.8491 2.043-7.6289 1.908-13.4868 5.177l-4.7681 22.342h-8.9912v-35.148q24.794-5.858 42.0952-5.858 29.9707 0 44.9561 12.534 15.1216 12.397 15.1216 35.147 0 15.258-5.9942 28.881-5.8579 13.487-18.1186 26.974-12.2608 13.35-40.5967 37.463-12.1245 10.354-25.7476 22.751h93.9991z"/><path d="m9217.1852 11578.1852h541v396h-541z" fill="none"/><path d="m9279.9738 11779.7012q0 55.988 18.7207 81.123 18.7207 25.134 58.5888 25.134 39.6949 0 58.5889-25.134 18.8941-25.135 18.8941-81.123 0-55.642-18.8941-80.083-18.7207-24.615-58.5889-24.615-40.0415 0-58.7622 24.615-18.5473 24.441-18.5473 80.083zm-36.2281 0q0-118.565 113.5376-118.565 56.1622 0 84.9366 30.161 28.7744 29.988 28.7744 88.404 0 59.282-29.1211 89.616-29.1211 30.335-84.5899 30.335-55.2954 0-84.4165-30.161-29.1211-30.335-29.1211-89.79z"/><path d="m9495.7819 11896.1852v-9.187l29.8144-4.68v-204.888l-29.8144-4.507v-9.187h93.0835v9.187l-29.8145 4.507v91.35h109.3775v-91.35l-29.8145-4.507v-9.187h92.9102v9.187l-29.8145 4.507v204.888l29.8145 4.68v9.187h-92.9102v-9.187l29.8145-4.68v-97.937h-109.3775v97.937l29.8145 4.68v9.187z"/><path d="m13233.1852 10230.1852h357v396h-357z" fill="none"/><path d="m13283.9742 10431.7012q0 55.988 18.72 81.123 18.721 25.134 58.589 25.134 39.695 0 58.589-25.134 18.894-25.135 18.894-81.123 0-55.642-18.894-80.083-18.721-24.615-58.589-24.615-40.041 0-58.762 24.615-18.547 24.441-18.547 80.083zm-36.228 0q0-118.565 113.537-118.565 56.162 0 84.937 30.161 28.774 29.988 28.774 88.404 0 59.282-29.121 89.616-29.121 30.335-84.59 30.335-55.295 0-84.416-30.161-29.121-30.335-29.121-89.79z"/><path d="m13746.1852 11807.1852h357v396h-357z" fill="none"/><path d="m13756.4122 12125.1852v-9.187l29.815-4.68v-204.888l-29.815-4.507v-9.187h93.084v9.187l-29.815 4.507v91.35h109.378v-91.35l-29.815-4.507v-9.187h92.91v9.187l-29.814 4.507v204.888l29.814 4.68v9.187h-92.91v-9.187l29.815-4.68v-97.937h-109.378v97.937l29.815 4.68v9.187z"/><path d="m12653.1852 11292.1852h357v396h-357z" fill="none"/><path d="m12663.4122 11610.1852v-9.187l29.815-4.68v-204.888l-29.815-4.507v-9.187h93.084v9.187l-29.815 4.507v91.35h109.378v-91.35l-29.815-4.507v-9.187h92.91v9.187l-29.814 4.507v204.888l29.814 4.68v9.187h-92.91v-9.187l29.815-4.68v-97.937h-109.378v97.937l29.815 4.68v9.187z"/><path d="m11722.1852 10894.1852h357v396h-357z" fill="none"/><path d="m11732.4122 11212.1852v-9.187l29.815-4.68v-204.888l-29.815-4.507v-9.187h93.084v9.187l-29.815 4.507v91.35h109.378v-91.35l-29.815-4.507v-9.187h92.91v9.187l-29.814 4.507v204.888l29.814 4.68v9.187h-92.91v-9.187l29.815-4.68v-97.937h-109.378v97.937l29.815 4.68v9.187z"/><path d="m10611.1852 10323.1852h357v396h-357z" fill="none"/><path d="m10621.4122 10641.1852v-9.187l29.815-4.68v-204.888l-29.815-4.507v-9.187h93.084v9.187l-29.815 4.507v91.35h109.378v-91.35l-29.815-4.507v-9.187h92.91v9.187l-29.814 4.507v204.888l29.814 4.68v9.187h-92.91v-9.187l29.815-4.68v-97.937h-109.378v97.937l29.815 4.68v9.187z"/><path d="m11130.1852 11292.1852h541v396h-541z" fill="none"/><path d="m11192.9742 11493.7012q0 55.988 18.72 81.123 18.721 25.134 58.589 25.134 39.695 0 58.589-25.134 18.894-25.135 18.894-81.123 0-55.642-18.894-80.083-18.721-24.615-58.589-24.615-40.041 0-58.762 24.615-18.547 24.441-18.547 80.083zm-36.228 0q0-118.565 113.537-118.565 56.162 0 84.937 30.161 28.774 29.988 28.774 88.404 0 59.282-29.121 89.616-29.121 30.335-84.59 30.335-55.295 0-84.416-30.161-29.121-30.335-29.121-89.79z"/><path d="m11408.7822 11610.1852v-9.187l29.814-4.68v-204.888l-29.814-4.507v-9.187h93.083v9.187l-29.814 4.507v91.35h109.377v-91.35l-29.814-4.507v-9.187h92.91v9.187l-29.815 4.507v204.888l29.815 4.68v9.187h-92.91v-9.187l29.814-4.68v-97.937h-109.377v97.937l29.814 4.68v9.187z"/><path d="m11151.1852 12717.1852h357v396h-357z" fill="none"/><path d="m11161.4122 13035.1852v-9.187l29.815-4.68v-204.888l-29.815-4.507v-9.187h93.084v9.187l-29.815 4.507v91.35h109.378v-91.35l-29.815-4.507v-9.187h92.91v9.187l-29.814 4.507v204.888l29.814 4.68v9.187h-92.91v-9.187l29.815-4.68v-97.937h-109.378v97.937l29.815 4.68v9.187z"/><path d="m12633.1852 12717.1852h541v396h-541z" fill="none"/><path d="m12695.9742 12918.7012q0 55.988 18.72 81.123 18.721 25.134 58.589 25.134 39.695 0 58.589-25.134 18.894-25.135 18.894-81.123 0-55.642-18.894-80.083-18.721-24.615-58.589-24.615-40.041 0-58.762 24.615-18.547 24.441-18.547 80.083zm-36.228 0q0-118.565 113.537-118.565 56.162 0 84.937 30.161 28.774 29.988 28.774 88.404 0 59.282-29.121 89.616-29.121 30.335-84.59 30.335-55.295 0-84.416-30.161-29.121-30.335-29.121-89.79z"/><path d="m12911.7822 13035.1852v-9.187l29.814-4.68v-204.888l-29.814-4.507v-9.187h93.083v9.187l-29.814 4.507v91.35h109.377v-91.35l-29.814-4.507v-9.187h92.91v9.187l-29.815 4.507v204.888l29.815 4.68v9.187h-92.91v-9.187l29.814-4.68v-97.937h-109.377v97.937l29.814 4.68v9.187z"/><path d="m11722.1852 9529.1852h498v396h-498z" fill="none"/><path d="m11856.3502 9850.652q-56.509 0-88.057-30.6812-31.547-30.8544-31.547-86.3232 0-59.9756 30.334-90.6567 30.334-30.8545 89.963-30.8545 36.228 0 77.83 8.8403l1.04 50.7886h-11.44l-5.201-30.1612q-12.133-7.4536-28.254-11.4404-15.947-4.1601-32.588-4.1601-44.548 0-65.002 26.1743-20.454 26.1743-20.454 81.123 0 50.6153 21.32 77.3096 21.495 26.6943 62.403 26.6943 19.76 0 37.268-4.6801 17.507-4.8536 27.734-12.8272l6.414-34.668h11.267l-1.04 54.6021q-38.135 10.9204-81.99 10.9204z"/><path d="m11969.1942 9847.1852v-9.187l29.815-4.6802v-204.8877l-29.815-4.5068v-9.187h93.084v9.187l-29.815 4.5068v91.3501h109.378v-91.3501l-29.815-4.5068v-9.187h92.91v9.187l-29.814 4.5068v204.8877l29.814 4.6802v9.187h-92.91v-9.187l29.815-4.6802v-97.937h-109.378v97.937l29.815 4.6802v9.187z"/><path d="m12217.1852 9705.1852h280v311h-280z" fill="none"/><path d="m12341.2912 9955.1852h-111.845v-20.0259l25.339-23.0229q24.385-21.3882 35.828-34.6026 11.444-13.2143 16.348-27.2461 5.04-14.0317 5.04-32.1504 0-17.7099-8.037-26.9736-8.038-9.2637-26.293-9.2637-7.22 0-14.849 2.0435-7.629 1.9072-13.487 5.1768l-4.768 22.3418h-8.991v-35.1475q24.794-5.8579 42.095-5.8579 29.971 0 44.956 12.5332 15.122 12.397 15.122 35.1474 0 15.2579-5.994 28.8809-5.858 13.4868-18.119 26.9736-12.261 13.3506-40.597 37.4634-12.124 10.3535-25.747 22.7505h93.999z"/><g fill="none"><path d="m8693.1852 12464.1852h1377v27h-1377z"/><path d="m10056.1852 12477.1852h-1350" stroke="#000" stroke-linecap="round" stroke-linejoin="round" stroke-width="25"/><path d="m9611.1852 13269.1852h1111v1065h-1111z"/></g><path d="m10721.1852 13269.1852-1110 945 17 59 26 60z"/><g fill="none"><path d="m9607.1852 13265.1852h1120v1073h-1120z"/><path d="m10722.1852 13269.1852-1111 945 17 59 26 60z" stroke="#000" stroke-linecap="round" stroke-linejoin="round" stroke-width="8"/><path d="m8091.1852 14213.1852h1565v121h-1565z"/></g><path d="m8134.1852 14273.1852-42 60h1563l-26-60-17-60h-1444z"/><g fill="none"><path d="m8087.1852 14209.1852h1573v129h-1573z"/><path d="m8134.1852 14273.1852-42 60h1563l-26-60-17-60h-1444z" stroke="#000" stroke-linecap="round" stroke-linejoin="round" stroke-width="8"/><path d="m10324.1852 12649.1852h412v635h-412z"/><path d="m10337.1852 12662.1852 385 608" stroke="#000" stroke-linecap="round" stroke-linejoin="round" stroke-width="25"/><path d="m7583.1852 12464.1852h1138v820h-1138z"/><path d="m7596.1852 13270.1852 1111-793" stroke="#000" stroke-linecap="round" stroke-linejoin="round" stroke-width="25"/><path d="m7596.1852 13269.1852h574v1065h-574z"/></g><path d="m7596.1852 13269.1852 497 1064 42-60 34-59z"/><g fill="none"><path d="m7592.1852 13265.1852h582v1073h-582z"/><path d="m7596.1852 13269.1852 497 1064 42-60 34-59z" stroke="#000" stroke-linecap="round" stroke-linejoin="round" stroke-width="8"/><path d="m10708.1852 13256.1852h27v626h-27z"/><path d="m10721.1852 13868.1852v-599" stroke="#000" stroke-linecap="round" stroke-linejoin="round" stroke-width="25"/><path d="m9615.1852 13711.1852h27v575h-27z"/><path d="m9628.1852 13724.1852v548" stroke="#000" stroke-linecap="round" stroke-linejoin="round" stroke-width="25"/><path d="m8693.1852 12464.1852h27v508h-27z"/><path d="m8706.1852 12958.1852v-481" stroke="#000" stroke-linecap="round" stroke-linejoin="round" stroke-width="25"/><path d="m7583.1852 12742.1852h27v541h-27z"/><path d="m7596.1852 12755.1852v514" stroke="#000" stroke-linecap="round" stroke-linejoin="round" stroke-width="25"/><path d="m7583.1852 14310.1852h88v53h-88z"/><path d="m7657.1852 14323.1852-61 26" stroke="#000" stroke-linecap="round" stroke-linejoin="round" stroke-width="25"/><path d="m7524.1852 14251.1852h147v87h-147z"/><path d="m7657.1852 14324.1852-120-60" stroke="#000" stroke-linecap="round" stroke-linejoin="round" stroke-width="25"/><path d="m7524.1852 14192.1852h147v87h-147z"/><path d="m7657.1852 14205.1852-120 60" stroke="#000" stroke-linecap="round" stroke-linejoin="round" stroke-width="25"/><path d="m7524.1852 14132.1852h147v88h-147z"/><path d="m7657.1852 14206.1852-120-61" stroke="#000" stroke-linecap="round" stroke-linejoin="round" stroke-width="25"/><path d="m7524.1852 14075.1852h147v85h-147z"/><path d="m7657.1852 14088.1852-120 58" stroke="#000" stroke-linecap="round" stroke-linejoin="round" stroke-width="25"/><path d="m7524.1852 14016.1852h147v87h-147z"/><path d="m7657.1852 14089.1852-120-60" stroke="#000" stroke-linecap="round" stroke-linejoin="round" stroke-width="25"/><path d="m7524.1852 13957.1852h147v87h-147z"/><path d="m7657.1852 13970.1852-120 60" stroke="#000" stroke-linecap="round" stroke-linejoin="round" stroke-width="25"/><path d="m7524.1852 13897.1852h147v88h-147z"/><path d="m7657.1852 13971.1852-120-61" stroke="#000" stroke-linecap="round" stroke-linejoin="round" stroke-width="25"/><path d="m7524.1852 13838.1852h147v87h-147z"/><path d="m7657.1852 13851.1852-120 60" stroke="#000" stroke-linecap="round" stroke-linejoin="round" stroke-width="25"/><path d="m7524.1852 13779.1852h147v87h-147z"/><path d="m7657.1852 13852.1852-120-60" stroke="#000" stroke-linecap="round" stroke-linejoin="round" stroke-width="25"/><path d="m7524.1852 13720.1852h147v87h-147z"/><path d="m7657.1852 13733.1852-120 60" stroke="#000" stroke-linecap="round" stroke-linejoin="round" stroke-width="25"/><path d="m7524.1852 13660.1852h147v88h-147z"/><path d="m7657.1852 13734.1852-120-61" stroke="#000" stroke-linecap="round" stroke-linejoin="round" stroke-width="25"/><path d="m7524.1852 13603.1852h147v85h-147z"/><path d="m7657.1852 13616.1852-120 58" stroke="#000" stroke-linecap="round" stroke-linejoin="round" stroke-width="25"/><path d="m7524.1852 13544.1852h147v87h-147z"/><path d="m7657.1852 13617.1852-120-60" stroke="#000" stroke-linecap="round" stroke-linejoin="round" stroke-width="25"/><path d="m7524.1852 13485.1852h147v87h-147z"/><path d="m7657.1852 13498.1852-120 60" stroke="#000" stroke-linecap="round" stroke-linejoin="round" stroke-width="25"/><path d="m7524.1852 13425.1852h147v88h-147z"/><path d="m7657.1852 13499.1852-120-61" stroke="#000" stroke-linecap="round" stroke-linejoin="round" stroke-width="25"/><path d="m7524.1852 13366.1852h147v87h-147z"/><path d="m7657.1852 13379.1852-120 60" stroke="#000" stroke-linecap="round" stroke-linejoin="round" stroke-width="25"/><path d="m7524.1852 13307.1852h147v87h-147z"/><path d="m7657.1852 13380.1852-120-60" stroke="#000" stroke-linecap="round" stroke-linejoin="round" stroke-width="25"/><path d="m7524.1852 13256.1852h87v79h-87z"/><path d="m7597.1852 13269.1852-60 52" stroke="#000" stroke-linecap="round" stroke-linejoin="round" stroke-width="25"/><path d="m8121.1852 13711.1852h27v575h-27z"/><path d="m8134.1852 13724.1852v548" stroke="#000" stroke-linecap="round" stroke-linejoin="round" stroke-width="25"/><path d="m8121.1852 14259.1852h27v533h-27z"/><path d="m8134.1852 14778.1852v-506" stroke="#000" stroke-linecap="round" stroke-linejoin="round" stroke-width="25"/><path d="m9615.1852 14259.1852h27v533h-27z"/><path d="m9628.1852 14778.1852v-506" stroke="#000" stroke-linecap="round" stroke-linejoin="round" stroke-width="25"/><path d="m10708.1852 12388.1852h45v896h-45z"/><path d="m10739.1852 12401.1852-18 869" stroke="#000" stroke-linecap="round" stroke-linejoin="round" stroke-width="25"/><path d="m8693.1852 11950.1852h27v541h-27z"/><path d="m8706.1852 11963.1852v514" stroke="#000" stroke-linecap="round" stroke-linejoin="round" stroke-width="25"/><path d="m11836.1852 10416.1852h1375v27h-1375z"/><path d="m13197.1852 10429.1852h-1348" stroke="#000" stroke-linecap="round" stroke-linejoin="round" stroke-width="25"/><path d="m12752.1852 11220.1852h1115v1065h-1115z"/></g><path d="m13865.1852 11220.1852-1113 945 20 59 25 60z"/><g fill="none"><path d="m12749.1852 11216.1852h1121v1073h-1121z"/><path d="m13865.1852 11220.1852-1112 945 19 59 25 60z" stroke="#000" stroke-linecap="round" stroke-linejoin="round" stroke-width="8"/><path d="m11233.1852 12164.1852h1566v121h-1566z"/></g><path d="m11277.1852 12224.1852-44 60h1565l-25-60-20-60h-1442z"/><g fill="none"><path d="m11229.1852 12160.1852h1574v129h-1574z"/><path d="m11277.1852 12224.1852-44 60h1565l-25-60-19-60h-1443z" stroke="#000" stroke-linecap="round" stroke-linejoin="round" stroke-width="8"/><path d="m13466.1852 10600.1852h413v635h-413z"/><path d="m13479.1852 10613.1852 386 608" stroke="#000" stroke-linecap="round" stroke-linejoin="round" stroke-width="25"/><path d="m10725.1852 10415.1852h1139v820h-1139z"/><path d="m10738.1852 11221.1852 1112-793" stroke="#000" stroke-linecap="round" stroke-linejoin="round" stroke-width="25"/><path d="m10737.1852 11220.1852h576v1065h-576z"/></g><path d="m10737.1852 11220.1852 497 1064 44-60 34-59z"/><g fill="none"><path d="m10734.1852 11216.1852h583v1073h-583z"/><path d="m10738.1852 11220.1852 496 1064 44-60 34-59z" stroke="#000" stroke-linecap="round" stroke-linejoin="round" stroke-width="8"/><path d="m13851.1852 11207.1852h27v626h-27z"/><path d="m13864.1852 11819.1852v-599" stroke="#000" stroke-linecap="round" stroke-linejoin="round" stroke-width="25"/><path d="m12759.1852 11662.1852h27v575h-27z"/><path d="m12772.1852 11675.1852v548" stroke="#000" stroke-linecap="round" stroke-linejoin="round" stroke-width="25"/><path d="m11836.1852 10415.1852h27v508h-27z"/><path d="m11849.1852 10909.1852v-481" stroke="#000" stroke-linecap="round" stroke-linejoin="round" stroke-width="25"/><path d="m10725.1852 10693.1852h27v541h-27z"/><path d="m10738.1852 10706.1852v514" stroke="#000" stroke-linecap="round" stroke-linejoin="round" stroke-width="25"/><path d="m10725.1852 11207.1852h27v838h-27z"/><path d="m10738.1852 12031.1852v-811" stroke="#000" stroke-linecap="round" stroke-linejoin="round" stroke-width="25"/><path d="m11264.1852 11662.1852h27v575h-27z"/><path d="m11277.1852 11675.1852v548" stroke="#000" stroke-linecap="round" stroke-linejoin="round" stroke-width="25"/><path d="m11264.1852 12210.1852h27v533h-27z"/><path d="m11277.1852 12729.1852v-506" stroke="#000" stroke-linecap="round" stroke-linejoin="round" stroke-width="25"/><path d="m12759.1852 12210.1852h27v533h-27z"/><path d="m12772.1852 12729.1852v-506" stroke="#000" stroke-linecap="round" stroke-linejoin="round" stroke-width="25"/><path d="m13792.1852 10128.1852h87v53h-87z"/><path d="m13805.1852 10167.1852 60-26" stroke="#000" stroke-linecap="round" stroke-linejoin="round" stroke-width="25"/><path d="m13792.1852 10153.1852h146v87h-146z"/><path d="m13805.1852 10166.1852 119 60" stroke="#000" stroke-linecap="round" stroke-linejoin="round" stroke-width="25"/><path d="m13792.1852 10212.1852h146v87h-146z"/><path d="m13805.1852 10285.1852 119-60" stroke="#000" stroke-linecap="round" stroke-linejoin="round" stroke-width="25"/><path d="m13792.1852 10271.1852h146v88h-146z"/><path d="m13805.1852 10284.1852 119 61" stroke="#000" stroke-linecap="round" stroke-linejoin="round" stroke-width="25"/><path d="m13792.1852 10331.1852h146v87h-146z"/><path d="m13805.1852 10404.1852 119-60" stroke="#000" stroke-linecap="round" stroke-linejoin="round" stroke-width="25"/><path d="m13792.1852 10390.1852h146v87h-146z"/><path d="m13805.1852 10403.1852 119 60" stroke="#000" stroke-linecap="round" stroke-linejoin="round" stroke-width="25"/><path d="m13792.1852 10449.1852h146v88h-146z"/><path d="m13805.1852 10523.1852 119-61" stroke="#000" stroke-linecap="round" stroke-linejoin="round" stroke-width="25"/><path d="m13792.1852 10509.1852h146v85h-146z"/><path d="m13805.1852 10522.1852 119 58" stroke="#000" stroke-linecap="round" stroke-linejoin="round" stroke-width="25"/><path d="m13792.1852 10566.1852h146v87h-146z"/><path d="m13805.1852 10639.1852 119-60" stroke="#000" stroke-linecap="round" stroke-linejoin="round" stroke-width="25"/><path d="m13792.1852 10625.1852h146v87h-146z"/><path d="m13805.1852 10638.1852 119 60" stroke="#000" stroke-linecap="round" stroke-linejoin="round" stroke-width="25"/><path d="m13792.1852 10684.1852h146v87h-146z"/><path d="m13805.1852 10757.1852 119-60" stroke="#000" stroke-linecap="round" stroke-linejoin="round" stroke-width="25"/><path d="m13792.1852 10743.1852h146v88h-146z"/><path d="m13805.1852 10756.1852 119 61" stroke="#000" stroke-linecap="round" stroke-linejoin="round" stroke-width="25"/><path d="m13792.1852 10803.1852h146v87h-146z"/><path d="m13805.1852 10876.1852 119-60" stroke="#000" stroke-linecap="round" stroke-linejoin="round" stroke-width="25"/><path d="m13792.1852 10862.1852h146v87h-146z"/><path d="m13805.1852 10875.1852 119 60" stroke="#000" stroke-linecap="round" stroke-linejoin="round" stroke-width="25"/><path d="m13792.1852 10921.1852h146v87h-146z"/><path d="m13805.1852 10994.1852 119-60" stroke="#000" stroke-linecap="round" stroke-linejoin="round" stroke-width="25"/><path d="m13792.1852 10980.1852h146v88h-146z"/><path d="m13805.1852 10993.1852 119 61" stroke="#000" stroke-linecap="round" stroke-linejoin="round" stroke-width="25"/><path d="m13792.1852 11040.1852h146v85h-146z"/><path d="m13805.1852 11111.1852 119-58" stroke="#000" stroke-linecap="round" stroke-linejoin="round" stroke-width="25"/><path d="m13792.1852 11097.1852h146v87h-146z"/><path d="m13805.1852 11110.1852 119 60" stroke="#000" stroke-linecap="round" stroke-linejoin="round" stroke-width="25"/><path d="m13851.1852 11156.1852h87v79h-87z"/><path d="m13864.1852 11221.1852 60-52" stroke="#000" stroke-linecap="round" stroke-linejoin="round" stroke-width="25"/><path d="m11836.1852 9901.1852h27v541h-27z"/><path d="m11849.1852 9914.1852v514" stroke="#000" stroke-linecap="round" stroke-linejoin="round" stroke-width="25"/><path d="m12358.1852 9529.1852h541v396h-541z"/></g><path d="m12420.9742 9730.7008q0 55.9888 18.72 81.1231 18.721 25.1342 58.589 25.1342 39.695 0 58.589-25.1342 18.894-25.1343 18.894-81.1231 0-55.6421-18.894-80.083-18.721-24.6142-58.589-24.6142-40.041 0-58.762 24.6142-18.547 24.4409-18.547 80.083zm-36.228 0q0-118.5644 113.537-118.5644 56.162 0 84.937 30.1611 28.774 29.9878 28.774 88.4033 0 59.2823-29.121 89.6167-29.121 30.3345-84.59 30.3345-55.295 0-84.416-30.1611-29.121-30.3345-29.121-89.7901z"/><path d="m12636.7822 9847.1852v-9.187l29.814-4.6802v-204.8877l-29.814-4.5068v-9.187h93.083v9.187l-29.814 4.5068v91.3501h109.377v-91.3501l-29.814-4.5068v-9.187h92.91v9.187l-29.815 4.5068v204.8877l29.815 4.6802v9.187h-92.91v-9.187l29.814-4.6802v-97.937h-109.377v97.937l29.814 4.6802v9.187z"/><path d="m14004.1852 14801.1852h424v472h-424z" fill="none"/></svg>