<svg fill-rule="evenodd" height="90.9654" preserveAspectRatio="xMidYMid" stroke-linejoin="round" stroke-width="28.222" viewBox="8248 3909 5144.3704 2139.3704" width="218.737" xmlns="http://www.w3.org/2000/svg"><path d="m12488.1852 4646.1852h223v859h-223z" fill="none"/><path d="m12710.1852 5504.1852h-222v-8h197v-842h-197v-8h222z"/><g fill="none"><path d="m12496.1852 4655.1852h233v868h-233z"/><path d="m12724.1852 5518.1852h-223v-9h196v-842h-196v-8h223z" stroke="#000" stroke-linejoin="round" stroke-width="8"/><path d="m8684.1852 4561.1852h232v858h-232z"/></g><path d="m8684.1852 4561.1852h231v8h-205v841h205v8h-231z"/><g fill="none"><path d="m8693.1852 4570.1852h240v867h-240z"/><path d="m8697.1852 4574.1852h231v8h-205v841h205v9h-231z" stroke="#000" stroke-linejoin="round" stroke-width="8"/><path d="m12761.1852 5370.1852h396v443h-396z"/></g><path d="m12774.3002 5726.1852 42.818-204.8291h31.63l-7.521 35.6812q20.637-21.023 38.574-30.6666 17.937-9.6435 36.645-9.6435 24.881 0 38.96 13.501 14.273 13.5009 14.273 36.0669 0 11.3794-5.015 35.874l-26.038 124.0161h-34.909l27.195-129.8022q4.05-18.9014 4.05-27.9664 0-10.2221-7.136-16.5869-6.944-6.3647-20.252-6.3647-26.809 0-47.832 19.2871-20.83 19.2871-30.666 66.1548l-19.866 95.2783z"/><path d="m9981.1852 4144.1852h570v443h-570z" fill="none"/><path d="m10213.402 4401.0495 37.4172 9.4506q-11.765 46.0962-42.4319 70.398-30.4736 24.1089-74.6411 24.1089-45.7104 0-74.4482-18.5156-28.5449-18.7085-43.5889-54.004-14.851-35.2954-14.851-75.7983 0-44.1675 16.7797-76.9556 16.9727-32.9809 48.0249-49.9536 31.2452-17.1655 68.6621-17.1655 42.4317 0 71.3624 21.6016 28.9306 21.6015 40.31 60.7544l-36.8384 8.6792q-9.8364-30.8594-28.5449-44.939-18.7085-14.0796-47.0605-14.0796-32.5953 0-54.5826 15.6226-21.7944 15.6225-30.6665 42.0459-8.872 26.2304-8.872 54.1967 0 36.0669 10.415 63.0689 10.6079 26.8091 32.7881 40.1172 22.1802 13.3081 48.0249 13.3081 31.438 0 53.2324-18.1299 21.7945-18.1299 29.5093-53.811z"/><path d="m10298.0722 4500.1852v-282.749h37.417v116.1084h146.968v-116.1084h37.417v282.749h-37.417v-133.2739h-146.968v133.2739z"/><path d="m10544.1852 4308.1852h327v366h-327z" fill="none"/><path d="m10557.8742 4542.5827 28.653-3.8204q4.934 24.3545 16.714 35.1788 11.938 10.665 28.97 10.665 20.216 0 34.065-14.0078 14.008-14.0078 14.008-34.7012 0-19.7383-12.894-32.4726-12.893-12.8936-32.791-12.8936-8.118 0-20.216 3.1836l3.184-25.1504q2.865.3184 4.616.3184 18.306 0 32.95-9.5508 14.645-9.5508 14.645-29.4483 0-15.7587-10.665-26.1054-10.665-10.3467-27.538-10.3467-16.714 0-27.857 10.5059-11.142 10.5058-14.326 31.5175l-28.652-5.0937q5.253-28.8115 23.877-44.5703 18.624-15.918 46.321-15.918 19.101 0 35.179 8.2773 16.077 8.1182 24.513 22.2852 8.596 14.167 8.596 30.085 0 15.122-8.118 27.538-8.118 12.4161-24.036 19.7383 20.693 4.7754 32.154 19.8975 11.461 14.9629 11.461 37.5664 0 30.5625-22.285 51.8926-22.285 21.1709-56.35 21.1709-30.721 0-51.096-18.3057-20.216-18.3057-23.082-47.4355z"/><path d="m8931.1852 4812.1852h570v443h-570z" fill="none"/><path d="m9163.402 5069.0495 37.417 9.4506q-11.7651 46.0962-42.4317 70.398-30.4736 24.1089-74.6411 24.1089-45.7104 0-74.4482-18.5156-28.5449-18.7085-43.5889-54.004-14.851-35.2954-14.851-75.7983 0-44.1675 16.7797-76.9556 16.9727-32.9809 48.0249-49.9536 31.2452-17.1655 68.6621-17.1655 42.4317 0 71.3624 21.6016 28.9306 21.6015 40.31 60.7544l-36.8384 8.6792q-9.8364-30.8594-28.5449-44.939-18.7085-14.0796-47.0605-14.0796-32.5953 0-54.5826 15.6226-21.7944 15.6225-30.6665 42.0459-8.872 26.2304-8.872 54.1967 0 36.0669 10.415 63.0689 10.6079 26.8091 32.7881 40.1172 22.1802 13.3081 48.0249 13.3081 31.438 0 53.2324-18.1299 21.7945-18.1299 29.5093-53.811z"/><path d="m9248.0724 5168.1852v-282.749h37.417v116.1084h146.9678v-116.1084h37.417v282.749h-37.417v-133.2739h-146.9678v133.2739z"/><path d="m9495.1852 4977.1852h327v366h-327z" fill="none"/><path d="m9659.2995 5245.6471v27.5381h-154.2452q-.3183-10.3467 3.3428-19.8975 5.8897-15.7588 18.7832-31.04 13.0528-15.2813 37.5664-35.3379 38.044-31.1992 51.4151-49.3457 13.3711-18.3057 13.3711-34.542 0-17.0322-12.2569-28.6523-12.0976-11.7793-31.6767-11.7793-20.6934 0-33.1094 12.416-12.416 12.416-12.5752 34.3828l-29.4482-3.0244q3.0244-32.9502 22.7626-50.1416 19.7383-17.3506 53.0069-17.3506 33.5869 0 53.166 18.624 19.5791 18.624 19.5791 46.1621 0 14.0078-5.7305 27.5381-5.7304 13.5303-19.1015 28.4932-13.2119 14.9629-44.0928 41.0683-25.7871 21.6485-33.1094 29.4483-7.3222 7.6406-12.0976 15.4404z"/><path d="m9972.1852 4812.1852h396v443h-396z" fill="none"/><path d="m10204.402 5069.0495 37.4172 9.4506q-11.7653 46.0962-42.4319 70.398-30.4736 24.1089-74.6411 24.1089-45.7104 0-74.4482-18.5156-28.5449-18.7085-43.5889-54.004-14.851-35.2954-14.851-75.7983 0-44.1675 16.7797-76.9556 16.9727-32.9809 48.0249-49.9536 31.2452-17.1655 68.6621-17.1655 42.4317 0 71.3624 21.6016 28.9306 21.6015 40.31 60.7544l-36.8384 8.6792q-9.8364-30.8594-28.5449-44.939-18.7085-14.0796-47.0605-14.0796-32.5953 0-54.5826 15.6226-21.7944 15.6225-30.6665 42.0459-8.872 26.2304-8.872 54.1967 0 36.0669 10.415 63.0689 10.6079 26.8091 32.7881 40.1172 22.1802 13.3081 48.0249 13.3081 31.438 0 53.2324-18.1299 21.7945-18.1299 29.5093-53.811z"/><path d="m10748.1852 4812.1852h570v443h-570z" fill="none"/><path d="m10980.4022 5069.0495 37.417 9.4506q-11.765 46.0962-42.432 70.398-30.473 24.1089-74.641 24.1089-45.71 0-74.448-18.5156-28.545-18.7085-43.589-54.004-14.851-35.2954-14.851-75.7983 0-44.1675 16.78-76.9556 16.972-32.9809 48.025-49.9536 31.245-17.1655 68.662-17.1655 42.431 0 71.362 21.6016 28.931 21.6015 40.31 60.7544l-36.838 8.6792q-9.837-30.8594-28.545-44.939-18.709-14.0796-47.061-14.0796-32.595 0-54.582 15.6226-21.795 15.6225-30.667 42.0459-8.872 26.2304-8.872 54.1967 0 36.0669 10.415 63.0689 10.608 26.8091 32.788 40.1172 22.18 13.3081 48.025 13.3081 31.438 0 53.233-18.1299 21.794-18.1299 29.509-53.811z"/><path d="m11065.0722 5168.1852v-282.749h37.417v116.1084h146.968v-116.1084h37.417v282.749h-37.417v-133.2739h-146.968v133.2739z"/><g fill="none"><path d="m9702.1852 5019.1852h241v27h-241z"/><path d="m9929.1852 5032.1852h-214" stroke="#000" stroke-linejoin="round" stroke-width="25"/><path d="m10283.1852 4959.1852h436v27h-436z"/><path d="m10705.1852 4972.1852h-409" stroke="#000" stroke-linejoin="round" stroke-width="25"/><path d="m10283.1852 5087.1852h436v27h-436z"/><path d="m10705.1852 5100.1852h-409" stroke="#000" stroke-linejoin="round" stroke-width="25"/><path d="m11340.1852 5019.1852h249v27h-249z"/><path d="m11575.1852 5032.1852h-222" stroke="#000" stroke-linejoin="round" stroke-width="25"/><path d="m8483.1852 5010.1852h420v37h-420z"/><path d="m8496.1852 5023.1852 393 10" stroke="#000" stroke-linejoin="round" stroke-width="25"/><path d="m12390.1852 5019.1852h427v27h-427z"/><path d="m12803.1852 5032.1852h-400" stroke="#000" stroke-linejoin="round" stroke-width="25"/><path d="m10104.1852 4556.1852h27v284h-27z"/><path d="m10117.1852 4569.1852v257" stroke="#000" stroke-linejoin="round" stroke-width="25"/><path d="m12181.1852 4977.1852h327v366h-327z"/></g><path d="m12345.2992 5245.6471v27.5381h-154.245q-.318-10.3467 3.343-19.8975 5.89-15.7588 18.783-31.04 13.053-15.2813 37.567-35.3379 38.043-31.1992 51.415-49.3457 13.371-18.3057 13.371-34.542 0-17.0322-12.257-28.6523-12.098-11.7793-31.677-11.7793-20.693 0-33.109 12.416-12.416 12.416-12.576 34.3828l-29.448-3.0244q3.025-32.9502 22.763-50.1416 19.738-17.3506 53.007-17.3506 33.587 0 53.166 18.624 19.579 18.624 19.579 46.1621 0 14.0078-5.731 27.5381-5.73 13.5303-19.101 28.4932-13.212 14.9629-44.093 41.0683-25.787 21.6485-33.109 29.4483-7.323 7.6406-12.098 15.4404z"/><path d="m11649.1852 4812.1852h570v443h-570z" fill="none"/><path d="m11881.4022 5069.0495 37.417 9.4506q-11.765 46.0962-42.432 70.398-30.473 24.1089-74.641 24.1089-45.71 0-74.448-18.5156-28.545-18.7085-43.589-54.004-14.851-35.2954-14.851-75.7983 0-44.1675 16.78-76.9556 16.972-32.9809 48.025-49.9536 31.245-17.1655 68.662-17.1655 42.431 0 71.362 21.6016 28.931 21.6015 40.31 60.7544l-36.838 8.6792q-9.837-30.8594-28.545-44.939-18.709-14.0796-47.061-14.0796-32.595 0-54.582 15.6226-21.795 15.6225-30.667 42.0459-8.872 26.2304-8.872 54.1967 0 36.0669 10.415 63.0689 10.608 26.8091 32.788 40.1172 22.18 13.3081 48.025 13.3081 31.438 0 53.233-18.1299 21.794-18.1299 29.509-53.811z"/><path d="m11966.0722 5168.1852v-282.749h37.417v116.1084h146.968v-116.1084h37.417v282.749h-37.417v-133.2739h-146.968v133.2739z"/></svg>